<?xml version="1.0" encoding="utf-8"?>
<svg width="120" height="44" viewBox="0 0 120 44" fill="none" xmlns="http://www.w3.org/2000/svg" xmlns:bx="https://boxy-svg.com">
  <path d="M3.49587 31.2051C3.49587 31.2051 7.24024 27.0749 13.1056 27.13C13.1056 27.13 12.8055 25.0375 13.5115 23.3934C13.5115 23.3934 6.80817 21.6654 6.50295 14.0166C6.50295 14.0166 -1.14722 20.4719 3.49587 31.2051Z" fill="url(#paint0_linear_638_1116)"/>
  <path d="M4.52832 32.7907C7.64542 37.7586 13.502 39.3278 13.502 39.3278L13.5137 39.1971C12.8489 35.5076 16.148 31.5183 16.148 31.5183C14.7509 30.6491 13.83 28.9644 13.83 28.9644C13.7469 28.9675 13.6802 28.9618 13.6134 28.9561C8.13325 28.9693 4.52832 32.7907 4.52832 32.7907Z" fill="url(#paint1_linear_638_1116)"/>
  <path d="M15.5101 39.7623C20.4435 40.6766 23.9384 38.6557 23.9384 38.6557C21.2597 36.4284 21.1228 32.8562 21.1228 32.8562C18.9607 32.9156 17.8942 32.3867 17.8942 32.3867C14.6631 35.4273 15.5101 39.7623 15.5101 39.7623Z" fill="url(#paint2_linear_638_1116)"/>
  <path d="M24.9065 32.2161L23.0313 32.7653C23.0313 32.7653 23.027 35.4856 25.9407 37.7408C25.9407 37.7408 28.074 36.327 28.1982 36.0944C28.1982 36.0944 35.4298 34.2497 36.0003 25.2294C36.0003 25.2294 34.4224 25.2872 32.2456 26.4338L33.111 22.5254C33.111 22.5254 25.6221 24.8193 24.9065 32.2161Z" fill="url(#paint3_linear_638_1116)"/>
  <path d="M22.6092 13.2843C22.6092 14.1084 21.927 14.7765 21.0854 14.7765C20.2438 14.7765 19.5615 14.1084 19.5615 13.2843C19.5615 12.4601 20.2438 11.792 21.0854 11.792C21.927 11.792 22.6092 12.4601 22.6092 13.2843Z" fill="url(#paint4_linear_638_1116)"/>
  <path d="M24.9841 5.03441C23.8004 5.83516 22.5085 6.63173 21.1451 7.3006C19.7818 7.96948 18.3723 8.51788 16.9802 8.87017L13.9648 9.61581C13.2651 9.80432 12.5475 9.96089 11.8551 10.1247C11.1302 10.306 9.54409 10.8038 8.39536 12.0838C8.39536 12.0838 7.3188 17.4333 12.164 20.8313C12.164 20.8313 14.0292 22.1964 17.4354 21.8844C18.985 21.7381 20.4644 21.2767 21.8173 20.5512C22.9167 19.9408 24.4695 19.0044 25.454 17.9992C25.5414 17.8901 25.6376 17.797 25.7339 17.7039C25.8064 17.6442 25.9027 17.5511 26.0063 17.4333L32.1846 11.0908C31.807 10.5671 31.0623 10.4478 30.5275 10.8175L27.1484 13.1483C27.5109 10.8791 25.8196 5.35403 25.8196 5.35403C25.7168 5.05645 25.4482 4.99299 25.2406 5.00059C25.0908 4.99793 24.9841 5.03441 24.9841 5.03441ZM18.1045 13.2677C18.0928 11.6555 19.4403 10.352 21.0865 10.3406C22.7254 10.3539 24.0729 11.6646 24.0593 13.2696C24.0709 14.8817 22.7324 16.2012 21.0772 16.1966C19.4473 16.1993 18.0998 14.8885 18.1045 13.2677Z" fill="url(#paint5_linear_638_1116)"/>
  <path d="M22.6092 13.2833C22.6092 14.1075 21.927 14.7756 21.0854 14.7756C20.2438 14.7756 19.5615 14.1075 19.5615 13.2833C19.5615 12.4591 20.2438 11.791 21.0854 11.791C21.927 11.791 22.6092 12.4591 22.6092 13.2833Z" fill="url(#paint6_linear_638_1116)"/>
  <path d="M22.6092 13.2833C22.6092 14.1075 21.927 14.7756 21.0854 14.7756C20.2438 14.7756 19.5615 14.1075 19.5615 13.2833C19.5615 12.4591 20.2438 11.791 21.0854 11.791C21.927 11.791 22.6092 12.4591 22.6092 13.2833Z" fill="url(#paint7_linear_638_1116)"/>
  <rect x="84" y="27" width="34" height="13" rx="6.5" fill="#05FFA5"/>
  <defs>
    <linearGradient id="paint0_linear_638_1116" x1="14.7589" y1="38.4885" x2="6.11725" y2="22.3742" gradientUnits="userSpaceOnUse">
      <stop stop-color="#FF1653"/>
      <stop offset="1" stop-color="#FF7A53"/>
    </linearGradient>
    <linearGradient id="paint1_linear_638_1116" x1="14.0822" y1="38.8496" x2="5.44057" y2="22.7353" gradientUnits="userSpaceOnUse">
      <stop stop-color="#FF1653"/>
      <stop offset="1" stop-color="#FF7A53"/>
    </linearGradient>
    <linearGradient id="paint2_linear_638_1116" x1="18.4369" y1="36.5161" x2="9.7953" y2="20.4018" gradientUnits="userSpaceOnUse">
      <stop stop-color="#FF1653"/>
      <stop offset="1" stop-color="#FF7A53"/>
    </linearGradient>
    <linearGradient id="paint3_linear_638_1116" x1="29.9524" y1="30.3391" x2="21.3108" y2="14.2248" gradientUnits="userSpaceOnUse">
      <stop stop-color="#FF1653"/>
      <stop offset="1" stop-color="#FF7A53"/>
    </linearGradient>
    <linearGradient id="paint4_linear_638_1116" x1="30.4723" y1="30.0638" x2="21.8307" y2="13.9495" gradientUnits="userSpaceOnUse">
      <stop stop-color="#FF1653"/>
      <stop offset="1" stop-color="#FF7A53"/>
    </linearGradient>
    <linearGradient id="paint5_linear_638_1116" x1="29.7403" y1="30.4519" x2="21.0987" y2="14.3376" gradientUnits="userSpaceOnUse">
      <stop stop-color="#FF1653"/>
      <stop offset="1" stop-color="#FF7A53"/>
    </linearGradient>
    <linearGradient id="paint6_linear_638_1116" x1="30.4723" y1="30.0628" x2="21.8307" y2="13.9485" gradientUnits="userSpaceOnUse">
      <stop stop-color="#FF1653"/>
      <stop offset="1" stop-color="#FF7A53"/>
    </linearGradient>
    <linearGradient id="paint7_linear_638_1116" x1="30.4723" y1="30.0628" x2="21.8307" y2="13.9485" gradientUnits="userSpaceOnUse">
      <stop stop-color="#FF1653"/>
      <stop offset="1" stop-color="#FF7A53"/>
    </linearGradient>
    <style bx:fonts="Pixelify Sans">@import url(https://fonts.googleapis.com/css2?family=Pixelify+Sans%3Aital%2Cwght%400%2C400..700&amp;display=swap);</style>
  </defs>
  <text style="fill: rgb(255, 255, 255); font-family: &quot;Pixelify Sans&quot;; font-size: 22px; font-weight: 418; line-height: 50.874px; text-transform: uppercase; white-space: pre;" x="37.957" y="23.245">shrimp</text>
  <text style="fill: rgb(0, 0, 0); font-family: &quot;Pixelify Sans&quot;; font-size: 12px; font-weight: 418; line-height: 50.874px; white-space: pre;" x="89.788" y="37.048"> .sh</text>
</svg>